<svg width="225" height="225" viewBox="0 0 225 225" fill="none" xmlns="http://www.w3.org/2000/svg">
<path d="M224.99 112.5C224.99 174.64 174.63 225.01 112.5 225.01C81.11 225.01 52.7099 212.15 32.3199 191.4C32.1499 191.24 31.99 191.08 31.83 190.91C30.6 189.65 29.39 188.35 28.23 187.02C28.12 186.91 28.01 186.79 27.91 186.67C27.86 186.62 27.82 186.56 27.76 186.5C26.98 185.62 26.23 184.73 25.49 183.82C25.22 183.5 24.9499 183.17 24.6899 182.84C23.4299 181.26 22.2 179.65 21.01 178C20.18 176.83 19.3599 175.65 18.5599 174.43C10.5399 162.3 4.80999 148.53 1.98999 133.72C1.95999 133.54 1.92002 133.36 1.90002 133.18C1.58002 131.5 1.30996 129.81 1.07996 128.11C1.06996 128.07 1.06994 128.03 1.05994 127.99C0.659937 125.04 0.349941 122.05 0.189941 119.02C0.169941 118.74 0.150015 118.46 0.140015 118.18C0.0700146 116.94 0.0400195 115.69 0.0200195 114.44C0.0100195 114.17 0.0100098 113.89 0.0100098 113.62C9.76585e-06 113.25 0 112.87 0 112.5C0 111.29 0.0199365 110.08 0.0599365 108.89C0.0999365 107.35 0.180049 105.81 0.300049 104.3C0.320049 104.01 0.339985 103.72 0.359985 103.43C0.419985 102.66 0.479956 101.9 0.579956 101.13C0.739956 99.46 0.939932 97.81 1.17993 96.16C1.18993 96.11 1.18995 96.07 1.19995 96.01C1.54995 93.61 1.97998 91.24 2.47998 88.91C13.33 38.1 58.46 0 112.5 0C174.64 0 224.99 50.37 224.99 112.49V112.5Z" fill="#1D1D1B"/>
<path d="M119.87 56.2303H105.97V55.6803L140.81 47.6104L119.87 56.2303Z" fill="#67AD31"/>
<path d="M16.54 86.0205C12.62 88.6005 7.60004 91.9105 1.17004 96.1605C1.18004 96.1105 1.17994 96.0705 1.18994 96.0105C1.53994 93.6105 1.96997 91.2405 2.46997 88.9105C7.43997 88.0005 12.15 87.0305 16.54 86.0205Z" fill="#67AD31"/>
<path d="M34.95 136.1L0.0200195 114.44C0.0100195 114.17 0.0100098 113.89 0.0100098 113.62C9.76585e-06 113.25 0 112.87 0 112.5C0 111.29 0.0199365 110.08 0.0599365 108.89C0.0999365 107.35 0.180049 105.81 0.300049 104.3C0.320049 104.01 0.339985 103.72 0.359985 103.43C0.419985 102.66 0.479956 101.9 0.579956 101.13C9.84996 94.9902 19.36 88.7202 25.45 84.7402L34.95 136.1Z" fill="#67AD31"/>
<path d="M35.4299 140.88L27.62 156.401L27.52 156.581L18.5599 174.431C10.5399 162.301 4.80999 148.53 1.98999 133.72C1.95999 133.54 1.92002 133.361 1.90002 133.181C1.58002 131.501 1.30996 129.811 1.07996 128.111C1.06996 128.071 1.06994 128.031 1.05994 127.991C0.659937 125.041 0.349941 122.051 0.189941 119.021L35.4299 140.88Z" fill="#67AD31"/>
<path d="M42.34 156.141L42.0699 160.411C42.0699 160.411 30.53 166.331 28.83 173.931C28.02 177.541 27.87 182.471 27.91 186.661C27.86 186.611 27.82 186.551 27.76 186.491C26.98 185.611 26.23 184.721 25.49 183.811C25.22 183.491 24.9499 183.161 24.6899 182.831C23.4299 181.251 22.2 179.641 21.01 177.991L30.27 159.591L42.34 156.141Z" fill="#67AD31"/>
<path d="M59.8199 151.161L87.33 143.311L87.47 143.881L87.12 158.591L87.73 164.981V165.021L88.53 176.491C88.53 176.491 68.28 166.081 59.83 151.181L59.8199 151.161Z" fill="#67AD31"/>
<path d="M100.51 143.04L105.42 165.76L91.2 161.55L90.91 158.45L91.01 154.55L96.14 151.92L100.51 143.04Z" fill="#67AD31"/>
<path d="M75.59 96.51L86.4 139.61L32.59 154.98L39.6899 140.86L29.03 83.29L75.59 96.51Z" fill="#67AD31"/>
<path d="M110.21 94.2807L89.91 137.981L79.14 95.0607L102.31 65.9307L102.65 91.3807L110.21 94.2807Z" fill="#67AD31"/>
<path d="M113.77 95.6504L117.62 97.1304L99.22 137.04V137.06L93.29 149.12L91.11 150.23L91.26 144.09L113.77 95.6504Z" fill="#67AD31"/>
<path d="M123.96 58.6502L143.31 50.7002L167.41 86.4902L161.78 88.5802L123.96 58.6502Z" fill="#67AD31"/>
<path d="M119.59 60.0303L159.36 91.5103L156.92 104.72L119.35 93.7303L119.26 93.7003L119.21 93.6903L106.42 88.7603L106.04 60.0303H119.59Z" fill="#67AD31"/>
<path d="M169.6 89.7502L166.23 102.14L160.59 105.8L163.1 92.1402L169.59 89.7402L169.6 89.7502Z" fill="#67AD31"/>
<path d="M27.49 156.44L27.63 156.4L27.53 156.58L27.49 156.44Z" fill="#67AD31"/>
<path d="M105.99 56.2307H105.97V55.6807L105.99 56.2307Z" fill="#67AD31"/>
<path d="M74.4557 176.168L59.0098 193.523L54.3021 189.333L65.9889 176.202L59.9136 170.795L48.2269 183.925L43.5192 179.735L58.9651 162.381L74.4557 176.168Z" fill="#F6F6F6"/>
<path d="M77.606 177.911L87.1861 182.084C89.523 183.102 91.1157 184.638 91.9644 186.693C92.8173 188.737 92.7757 190.834 91.8397 192.983C90.9036 195.131 89.3894 196.592 87.2972 197.366C85.2191 198.133 83.0166 198.01 80.6897 196.996L76.8873 195.34L74.105 201.727L68.3272 199.21L77.606 177.911ZM84.616 187.132L81.1255 185.611L79.1391 190.171L82.6295 191.692C83.3028 191.985 83.9764 192.008 84.6501 191.759C85.3238 191.511 85.7923 191.084 86.0554 190.48C86.3228 189.867 86.3181 189.228 86.0413 188.566C85.7644 187.903 85.2893 187.425 84.616 187.132Z" fill="#F6F6F6"/>
<path d="M97.2077 186.169L103.486 186.713L102.367 199.61L113.397 187.573L118.852 188.047L116.843 211.192L110.565 210.648L111.684 197.751L100.622 209.785L95.199 209.314L97.2077 186.169Z" fill="#F6F6F6"/>
<path d="M142.63 182.439L148.47 204.926L142.37 206.51L140.118 197.838L131.933 199.965L134.185 208.636L128.085 210.22L122.245 187.734L128.344 186.15L130.515 194.508L138.701 192.382L136.53 184.024L142.63 182.439Z" fill="#F6F6F6"/>
<path d="M144.158 181.616L160.472 171.402L163.472 176.195L157.979 179.634L167.308 194.533L161.966 197.877L152.638 182.978L147.159 186.408L144.158 181.616Z" fill="#F6F6F6"/>
<path d="M170.805 170.523C170.94 172.282 171.727 173.783 173.165 175.026C174.603 176.269 176.207 176.834 177.975 176.721C179.743 176.608 181.228 175.856 182.428 174.467C183.629 173.078 184.154 171.505 184.003 169.747C183.86 167.981 183.069 166.476 181.63 165.233C180.192 163.99 178.593 163.429 176.833 163.549C175.072 163.654 173.591 164.401 172.39 165.79C171.189 167.179 170.661 168.757 170.805 170.523ZM176.844 157.541C180.312 157.212 183.316 158.146 185.858 160.343C188.399 162.539 189.762 165.381 189.947 168.867C190.13 172.337 189.042 175.437 186.683 178.167C184.331 180.888 181.421 182.412 177.953 182.741C174.484 183.055 171.479 182.113 168.938 179.917C166.397 177.72 165.034 174.886 164.851 171.416C164.666 167.929 165.75 164.826 168.102 162.105C170.461 159.376 173.375 157.854 176.844 157.541Z" fill="#F6F6F6"/>
<path d="M192.303 143.609C192.385 143.526 192.502 143.418 192.654 143.283C192.8 143.134 193.11 142.902 193.584 142.588C194.049 142.27 194.537 142.02 195.049 141.839C195.561 141.658 196.202 141.574 196.972 141.586C197.736 141.583 198.506 141.747 199.281 142.078C201.128 142.867 202.352 144.305 202.952 146.394C203.556 148.472 203.279 150.867 202.122 153.579C201.672 154.632 201.104 155.605 200.417 156.498C199.745 157.385 199.088 158.085 198.446 158.598C197.809 159.101 197.201 159.534 196.623 159.898C196.044 160.262 195.573 160.513 195.209 160.651L194.677 160.864L192.614 156.002C192.812 155.922 193.083 155.797 193.426 155.626C193.763 155.442 194.291 155.015 195.011 154.348C195.731 153.68 196.264 152.939 196.612 152.125C197.045 151.112 197.166 150.236 196.976 149.497C196.791 148.748 196.41 148.251 195.834 148.005C194.612 147.484 193.595 148.188 192.782 150.12L191.605 152.876L186.718 150.79L187.761 148.346C188.135 147.472 188.253 146.753 188.118 146.191C187.982 145.628 187.661 145.238 187.155 145.022C186.668 144.814 186.18 144.87 185.691 145.19C185.193 145.505 184.744 146.13 184.345 147.064C184.057 147.739 183.904 148.455 183.887 149.211C183.863 149.953 183.922 150.518 184.061 150.906L184.237 151.527L179.289 153.378C179.235 153.285 179.168 153.139 179.088 152.94C179.009 152.742 178.886 152.314 178.721 151.656C178.559 150.988 178.466 150.314 178.439 149.633C178.407 148.938 178.473 148.068 178.638 147.023C178.802 145.977 179.101 144.948 179.533 143.935C180.56 141.531 182.007 139.847 183.875 138.883C185.747 137.909 187.487 137.765 189.097 138.452C190.179 138.914 190.989 139.577 191.524 140.44C192.05 141.299 192.313 142.045 192.312 142.679L192.303 143.609Z" fill="#F6F6F6"/>
<path d="M198.987 123.548L191.978 124.897L198.486 127.829L198.987 123.548ZM204.119 122.486L203.232 130.065L207.98 132.284L207.188 139.043L185.137 127.603L185.947 120.683L210.045 114.648L209.254 121.407L204.119 122.486Z" fill="#F6F6F6"/>
<path d="M207.156 95.5936L209.267 106.505L186.457 110.918L184.472 100.659C184.019 98.3153 184.253 96.3119 185.174 94.6485C186.095 92.9851 187.367 91.9965 188.99 91.6826C189.615 91.5615 190.234 91.5463 190.846 91.637C191.447 91.7298 191.945 91.8865 192.339 92.1071C192.734 92.3278 193.086 92.5566 193.396 92.7937C193.693 93.0222 193.916 93.2323 194.063 93.4239L194.28 93.6953C194.302 93.581 194.338 93.4256 194.388 93.2289C194.425 93.0237 194.547 92.659 194.754 92.135C194.95 91.613 195.199 91.1359 195.5 90.7035C195.801 90.2712 196.248 89.8493 196.839 89.4378C197.429 89.0157 198.105 88.7308 198.869 88.5831C200.65 88.2385 202.36 88.7163 203.997 90.0166C205.633 91.3063 206.686 93.1653 207.156 95.5936ZM203.186 101.263L202.368 97.0315C202.228 96.3104 201.897 95.764 201.374 95.3921C200.851 95.0202 200.266 94.8969 199.619 95.022C198.962 95.1492 198.46 95.4829 198.113 96.023C197.767 96.5631 197.663 97.1937 197.803 97.9147L198.621 102.146L203.186 101.263ZM189.498 100.363L190.159 103.783L194.056 103.029L193.395 99.6092C193.27 98.9623 192.995 98.4819 192.571 98.1678C192.137 97.8558 191.628 97.7563 191.045 97.8691C190.451 97.984 190.016 98.2662 189.74 98.7156C189.453 99.1671 189.372 99.7163 189.498 100.363Z" fill="#F6F6F6"/>
<path d="M181.702 89.5298L176.742 80.3325C175.532 78.089 175.227 75.8972 175.827 73.7571C176.419 71.6221 177.745 69.9983 179.808 68.8857C181.871 67.7731 183.964 67.5584 186.088 68.2417C188.196 68.9206 189.853 70.377 191.058 72.6109L193.027 76.2614L199.158 72.9543L202.15 78.5012L181.702 89.5298ZM181.88 77.9478L183.687 81.2988L188.065 78.9377L186.257 75.5868C185.909 74.9403 185.393 74.5069 184.709 74.2865C184.026 74.066 183.394 74.1122 182.814 74.4249C182.225 74.7428 181.835 75.2478 181.643 75.94C181.452 76.6321 181.531 77.3014 181.88 77.9478Z" fill="#F6F6F6"/>
<path d="M29.3035 67.8747L34.7234 59.2913L37.245 60.8835L35.4201 63.7736L43.2593 68.7236L41.4846 71.5341L33.6454 66.5841L31.8251 69.4669L29.3035 67.8747Z" fill="#F6F6F6"/>
<path d="M37.0394 56.0794L39.2188 53.5697L44.3738 58.0461L42.6588 49.6082L44.5524 47.4275L53.8044 55.4616L51.625 57.9714L46.47 53.4949L48.1738 61.9457L46.2913 64.1136L37.0394 56.0794Z" fill="#F6F6F6"/>
<path d="M56.7189 36.9138L64.4916 46.3865L61.922 48.495L56.041 41.3277L52.7249 44.0487L58.6059 51.216L56.0362 53.3245L48.2635 43.8518L56.7189 36.9138Z" fill="#F6F6F6"/>
<path d="M65.9826 35.273C65.7377 36.1707 65.862 37.0559 66.3555 37.9286C66.8491 38.8013 67.545 39.3665 68.4433 39.6241C69.3417 39.8818 70.2123 39.7723 71.0553 39.2955C71.8982 38.8188 72.4383 38.1305 72.6755 37.2307C72.9176 36.328 72.7919 35.4404 72.2984 34.5676C71.8048 33.6949 71.1103 33.1322 70.2147 32.8795C69.3214 32.6191 68.4532 32.7272 67.6102 33.2039C66.7673 33.6807 66.2247 34.3703 65.9826 35.273ZM71.2868 29.8976C73.0675 30.3499 74.3939 31.3472 75.2661 32.8893C76.1382 34.4314 76.3107 36.0845 75.7835 37.8486C75.2584 39.605 74.1679 40.9515 72.5117 41.8881C70.8605 42.8219 69.1445 43.0627 67.3638 42.6103C65.5853 42.1502 64.2599 41.1491 63.3878 39.6069C62.5157 38.0648 62.3421 36.4156 62.8672 34.6592C63.3944 32.8951 64.4835 31.5461 66.1348 30.6123C67.7909 29.6757 69.5083 29.4374 71.2868 29.8976Z" fill="#F6F6F6"/>
<path d="M80.5624 37.4051L76.2112 25.9503L84.3909 22.8431L85.4499 25.631L80.3775 27.5578L83.6698 36.2248L80.5624 37.4051Z" fill="#F6F6F6"/>
<path d="M87.8699 21.8094L93.2395 20.5668C94.5493 20.2637 95.7067 20.4139 96.7117 21.0174C97.7155 21.6154 98.3567 22.5166 98.6354 23.7209C98.9142 24.9253 98.7319 26.02 98.0886 27.005C97.4496 27.9831 96.478 28.6231 95.1737 28.925L93.0425 29.4182L93.871 32.9979L90.6326 33.7473L87.8699 21.8094ZM93.737 23.5126L91.7807 23.9654L92.3721 26.5211L94.3285 26.0684C94.7059 25.981 94.9982 25.7789 95.2055 25.4619C95.4128 25.145 95.4773 24.8172 95.399 24.4787C95.3194 24.1346 95.1168 23.8657 94.7913 23.6721C94.4658 23.4784 94.1144 23.4253 93.737 23.5126Z" fill="#F6F6F6"/>
<path d="M107.556 25.5034L106.107 22.029L105.292 25.7042L107.556 25.5034ZM108.656 28.0394L104.647 28.395L104.011 31.0851L100.436 31.4022L103.975 18.7867L107.635 18.462L113.339 30.2574L109.764 30.5746L108.656 28.0394Z" fill="#F6F6F6"/>
<path d="M118.067 22.6112C117.633 22.9896 117.391 23.5055 117.341 24.1587C117.292 24.8063 117.454 25.3498 117.826 25.7893C118.204 26.2293 118.741 26.4984 119.436 26.5968L119.78 22.0553C119.078 22.0479 118.507 22.2332 118.067 22.6112ZM122.42 31.2103L119.106 30.9593L119.224 29.3915C117.598 29.2226 116.299 28.6101 115.327 27.554C114.357 26.4921 113.923 25.2767 114.027 23.9077C114.131 22.5331 114.742 21.3968 115.862 20.499C116.981 19.6011 118.357 19.1911 119.991 19.2691L120.09 17.957L123.405 18.2079L123.305 19.5201C124.932 19.689 126.231 20.3015 127.202 21.3576C128.179 22.4142 128.616 23.6299 128.512 25.0045C128.408 26.3735 127.794 27.5067 126.669 28.4041C125.55 29.302 124.173 29.7148 122.539 29.6425L122.42 31.2103ZM124.455 26.2913C124.895 25.9132 125.14 25.4005 125.189 24.7529C125.238 24.0997 125.074 23.5559 124.695 23.1216C124.323 22.6821 123.789 22.4103 123.094 22.3063L122.751 26.8477C123.453 26.8552 124.021 26.6697 124.455 26.2913Z" fill="#F6F6F6"/>
<path d="M133.386 19.9467L136.601 20.7885L134.872 27.3934L141.677 22.1173L144.471 22.8487L141.368 34.7026L138.152 33.8608L139.881 27.256L133.06 32.5278L130.282 31.8007L133.386 19.9467Z" fill="#F6F6F6"/>
<path d="M158.194 28.5579L153.237 39.7641L150.197 38.4195L151.756 34.8951L150.154 34.1865L146.673 36.8607L143.469 35.4435L147.594 32.3908C147.551 32.347 147.496 32.282 147.428 32.1959C147.368 32.107 147.27 31.9203 147.134 31.636C147 31.3464 146.897 31.0516 146.824 30.7516C146.759 30.4486 146.742 30.0706 146.774 29.6177C146.814 29.1618 146.933 28.7099 147.131 28.2619C147.613 27.173 148.399 26.4307 149.49 26.0348C150.588 25.6361 151.728 25.6982 152.911 26.2213L158.194 28.5579ZM150.852 28.9545C150.541 29.0661 150.314 29.2834 150.171 29.6064C150.031 29.9242 150.025 30.2394 150.155 30.5521C150.284 30.8648 150.523 31.0984 150.873 31.2527L152.959 32.1756L153.948 29.9406L151.861 29.0178C151.507 28.8611 151.17 28.84 150.852 28.9545Z" fill="#F6F6F6"/>
</svg>
