<svg width="225" height="225" viewBox="0 0 225 225" fill="none" xmlns="http://www.w3.org/2000/svg">
<g clip-path="url(#clip0_7_175)">
<path d="M224.99 112.49C224.99 174.63 174.63 225 112.5 225C81.11 225 52.71 212.14 32.32 191.39C32.15 191.23 31.99 191.07 31.83 190.9C30.6 189.64 29.39 188.34 28.23 187.01C28.12 186.9 28.01 186.78 27.91 186.66C27.86 186.61 27.82 186.55 27.76 186.49C26.98 185.61 26.23 184.72 25.49 183.81C25.22 183.49 24.95 183.16 24.69 182.83C23.43 181.25 22.2 179.64 21.01 177.99C20.18 176.82 19.36 175.64 18.56 174.42C10.54 162.29 4.81 148.52 1.99 133.71C1.96 133.53 1.92 133.35 1.9 133.17C1.58 131.49 1.31 129.8 1.08 128.1C1.07 128.06 1.07 128.02 1.06 127.98C0.66 125.03 0.35 122.04 0.19 119.01C0.17 118.73 0.15 118.45 0.14 118.17C0.07 116.93 0.04 115.68 0.02 114.43C0.01 114.16 0.01 113.88 0.01 113.61C0 113.24 0 112.86 0 112.49C0 111.28 0.02 110.07 0.06 108.88C0.1 107.34 0.18 105.8 0.3 104.29C0.32 104 0.34 103.71 0.36 103.42C0.42 102.65 0.48 101.89 0.58 101.12C0.74 99.45 0.94 97.8 1.18 96.15C1.19 96.1 1.19 96.06 1.2 96C1.55 93.6 1.98 91.23 2.48 88.9C13.32 38.09 58.46 0 112.49 0C174.63 0 224.98 50.37 224.98 112.49H224.99Z" fill="#1D1D1B"/>
<path d="M119.88 56.2196H105.98V55.6696L140.82 47.5996L119.88 56.2196Z" fill="#67AD31"/>
<path d="M16.55 86.0098C12.63 88.5898 7.60999 91.8998 1.17999 96.1498C1.18999 96.0998 1.18999 96.0598 1.19999 95.9998C1.54999 93.5998 1.97999 91.2298 2.47999 88.8998C7.44999 87.9898 12.16 87.0198 16.55 86.0098Z" fill="#67AD31"/>
<path d="M34.95 136.089L0.02 114.429C0.01 114.159 0.01 113.879 0.01 113.609C0 113.239 0 112.859 0 112.489C0 111.279 0.02 110.069 0.06 108.879C0.1 107.339 0.18 105.799 0.3 104.289C0.32 103.999 0.34 103.709 0.36 103.419C0.42 102.649 0.48 101.889 0.58 101.119C9.85 94.9795 19.36 88.7095 25.45 84.7295L34.95 136.089Z" fill="#67AD31"/>
<path d="M35.44 140.87L27.63 156.39L27.53 156.57L18.57 174.42C10.55 162.29 4.82 148.52 2 133.71C1.97 133.53 1.93 133.35 1.91 133.17C1.59 131.49 1.32 129.8 1.09 128.1C1.08 128.06 1.08 128.02 1.07 127.98C0.669997 125.03 0.359997 122.04 0.199997 119.01L35.44 140.87Z" fill="#67AD31"/>
<path d="M42.34 156.13L42.07 160.4C42.07 160.4 30.53 166.32 28.83 173.92C28.02 177.53 27.87 182.46 27.91 186.65C27.86 186.6 27.82 186.54 27.76 186.48C26.98 185.6 26.23 184.71 25.49 183.8C25.22 183.48 24.95 183.15 24.69 182.82C23.43 181.24 22.2 179.63 21.01 177.98L30.27 159.58L42.34 156.13Z" fill="#67AD31"/>
<path d="M59.82 151.15L87.33 143.3L87.47 143.87L87.12 158.58L87.73 164.97V165.01L88.53 176.48C88.53 176.48 68.28 166.07 59.83 151.17L59.82 151.15Z" fill="#67AD31"/>
<path d="M100.52 143.029L105.42 165.749L91.21 161.539L90.91 158.439L91.02 154.539L96.15 151.909L100.52 143.029Z" fill="#67AD31"/>
<path d="M75.6 96.4993L86.4 139.599L32.6 154.969L39.69 140.849L29.04 83.2793L75.6 96.4993Z" fill="#67AD31"/>
<path d="M110.21 94.2699L89.91 137.97L79.14 95.0499L102.32 65.9199L102.66 91.3699L110.21 94.2699Z" fill="#67AD31"/>
<path d="M113.77 95.6396L117.62 97.1197L99.23 137.03V137.05L93.3 149.11L91.12 150.22L91.27 144.08L113.77 95.6396Z" fill="#67AD31"/>
<path d="M123.97 58.6395L143.31 50.6895L167.41 86.4795L161.79 88.5695L123.97 58.6395Z" fill="#67AD31"/>
<path d="M119.6 60.0195L159.37 91.4995L156.92 104.71L119.36 93.7195L119.27 93.6895L119.22 93.6795L106.42 88.7495L106.04 60.0195H119.6Z" fill="#67AD31"/>
<path d="M169.6 89.7395L166.23 102.129L160.6 105.789L163.1 92.1295L169.59 89.7295L169.6 89.7395Z" fill="#67AD31"/>
<path d="M27.49 156.43L27.63 156.39L27.53 156.57L27.49 156.43Z" fill="#67AD31"/>
<path d="M105.99 56.2199H105.98V55.6699L105.99 56.2199Z" fill="#67AD31"/>
<path d="M57.24 164.079L64.34 170.779C66.07 172.419 66.99 174.269 67.08 176.339C67.17 178.409 66.48 180.239 64.97 181.829C63.47 183.419 61.68 184.229 59.6 184.239C57.52 184.259 55.62 183.449 53.9 181.819L51.08 179.159L46.61 183.889L42.33 179.849L57.23 164.069L57.24 164.079ZM60.48 174.409L57.89 171.969L54.7 175.349L57.29 177.789C57.79 178.259 58.37 178.489 59.04 178.489C59.71 178.489 60.26 178.259 60.69 177.809C61.12 177.359 61.31 176.799 61.28 176.129C61.25 175.459 60.98 174.889 60.48 174.419V174.409Z" fill="#F6F6F6"/>
<path d="M62.5 197.08L72.48 177.81L81.57 182.52C83.6 183.57 84.95 185.08 85.62 187.03C86.29 188.98 86.13 190.9 85.16 192.77C84.76 193.54 84.27 194.2 83.7 194.75C83.13 195.3 82.57 195.7 82.03 195.95C81.49 196.2 80.99 196.39 80.51 196.51C80.04 196.63 79.66 196.69 79.39 196.69H78.92L79.28 205.79L73.78 202.94L73.61 195.17L70.85 193.74L67.71 199.8L62.48 197.09L62.5 197.08ZM78.64 191.12C79.22 190.95 79.65 190.59 79.93 190.04C80.22 189.49 80.26 188.93 80.06 188.37C79.86 187.81 79.46 187.37 78.85 187.05L75.27 185.2L73.28 189.04L76.86 190.89C77.47 191.21 78.06 191.28 78.64 191.11V191.12Z" fill="#F6F6F6"/>
<path d="M86.62 207.77L92.22 186.8L97.91 188.32L92.31 209.29L86.62 207.77Z" fill="#F6F6F6"/>
<path d="M116.46 190.17L122.35 190.34L121.74 212.04L116.66 211.9L107.68 199.55L107.34 211.64L101.45 211.47L102.06 189.77L107.17 189.91L116.12 202.26L116.46 190.17Z" fill="#F6F6F6"/>
<path d="M124.39 189.949L141.8 185.439L143.13 190.549L137.27 192.069L141.39 207.969L135.69 209.449L131.57 193.549L125.72 195.069L124.39 189.959V189.949Z" fill="#F6F6F6"/>
<path d="M160.83 177.86C164 178.61 166.38 180.34 167.97 183.04C169.56 185.74 169.92 188.66 169.05 191.8C168.18 194.94 166.29 197.36 163.39 199.07C160.49 200.78 157.46 201.26 154.29 200.51C151.12 199.76 148.74 198.03 147.15 195.33C145.56 192.63 145.2 189.71 146.07 186.57C146.94 183.43 148.83 181.01 151.73 179.3C154.63 177.59 157.66 177.11 160.83 177.86ZM151.6 187.55C151.2 189.15 151.45 190.72 152.35 192.25C153.25 193.78 154.5 194.76 156.1 195.19C157.7 195.62 159.24 195.4 160.72 194.52C162.2 193.64 163.13 192.41 163.53 190.81C163.93 189.21 163.67 187.64 162.77 186.11C161.87 184.58 160.62 183.6 159.03 183.18C157.44 182.75 155.9 182.98 154.42 183.85C152.94 184.72 152 185.96 151.6 187.56V187.55Z" fill="#F6F6F6"/>
<path d="M181.2 175.13C180.91 174.86 180.53 174.76 180.07 174.84C179.6 174.91 179.1 175.1 178.55 175.4C178.01 175.7 177.41 176.04 176.76 176.42C176.11 176.8 175.42 177.14 174.69 177.43C173.96 177.72 173.23 177.93 172.48 178.04C171.74 178.16 170.95 178.08 170.12 177.82C169.29 177.56 168.5 177.07 167.74 176.37C166.44 175.16 165.82 173.54 165.89 171.5C165.96 169.46 166.81 167.56 168.45 165.81C169.12 165.09 169.84 164.48 170.6 163.98C171.36 163.49 172.04 163.14 172.64 162.93C173.24 162.72 173.8 162.57 174.3 162.46C174.81 162.35 175.2 162.32 175.48 162.36H175.9L176.18 167.29C176.02 167.29 175.81 167.29 175.54 167.3C175.27 167.32 174.8 167.44 174.14 167.68C173.48 167.91 172.93 168.26 172.5 168.73C172.05 169.22 171.8 169.75 171.78 170.33C171.75 170.91 171.92 171.37 172.28 171.7C172.57 171.97 172.94 172.06 173.41 171.99C173.87 171.91 174.38 171.72 174.93 171.43C175.48 171.13 176.07 170.8 176.71 170.42C177.35 170.05 178.04 169.71 178.78 169.41C179.52 169.11 180.25 168.9 181 168.78C181.74 168.66 182.53 168.74 183.36 169C184.19 169.26 184.98 169.75 185.74 170.45C187.21 171.82 187.91 173.55 187.83 175.64C187.75 177.73 186.82 179.74 185.04 181.66C184.31 182.44 183.51 183.11 182.65 183.66C181.79 184.21 181 184.6 180.3 184.82C179.6 185.04 178.94 185.21 178.34 185.32C177.74 185.43 177.26 185.49 176.91 185.48H176.41L176.13 180.55C176.2 180.56 176.31 180.56 176.46 180.55C176.61 180.55 176.88 180.52 177.29 180.48C177.7 180.44 178.1 180.37 178.48 180.26C178.86 180.15 179.29 179.96 179.76 179.69C180.23 179.42 180.64 179.1 180.99 178.72C181.55 178.11 181.85 177.47 181.87 176.78C181.89 176.09 181.67 175.53 181.2 175.1V175.13Z" fill="#F6F6F6"/>
<path d="M197.07 154.889L193.76 161.209L197.16 164.729L194.21 170.359L178.79 153.009L181.81 147.239L204.85 150.029L201.9 155.659L197.06 154.889H197.07ZM192.24 154.099L185.67 152.929L190.37 157.659L192.24 154.089V154.099Z" fill="#F6F6F6"/>
<path d="M202.3 135.95C203.28 135.33 203.87 134.49 204.08 133.41C204.29 132.33 204.06 131.32 203.39 130.38C202.72 129.44 201.79 128.85 200.59 128.62L188.11 126.17L189.25 120.39L201.73 122.84C204.4 123.37 206.46 124.73 207.91 126.92C209.36 129.12 209.8 131.62 209.25 134.42C208.7 137.22 207.34 139.37 205.17 140.85C203 142.33 200.58 142.82 197.91 142.29L185.43 139.84L186.57 134.06L199.05 136.51C200.25 136.75 201.33 136.56 202.31 135.94L202.3 135.95Z" fill="#F6F6F6"/>
<path d="M210.83 114.539L189.23 116.719L188.2 106.539C187.97 104.259 188.49 102.309 189.76 100.689C191.03 99.0695 192.72 98.1495 194.81 97.9395C195.67 97.8495 196.49 97.8995 197.27 98.0795C198.04 98.2595 198.68 98.5095 199.19 98.8195C199.69 99.1295 200.13 99.4595 200.49 99.7795C200.85 100.109 201.11 100.389 201.25 100.619L201.52 100.999L208.93 95.7295L209.55 101.889L203.13 106.279L203.44 109.369L210.23 108.679L210.82 114.539H210.83ZM197.01 104.279C196.55 103.889 196.02 103.729 195.4 103.789C194.78 103.849 194.29 104.119 193.93 104.589C193.57 105.059 193.42 105.639 193.49 106.319L193.89 110.329L198.2 109.899L197.8 105.889C197.73 105.209 197.47 104.669 197.01 104.279Z" fill="#F6F6F6"/>
<path d="M206.59 88.4797L185.97 95.2496L184.13 89.6597L204.75 82.8896L206.59 88.4797Z" fill="#F6F6F6"/>
<path d="M175.25 67.5296C175.92 64.3396 177.58 61.9196 180.24 60.2496C182.9 58.5796 185.81 58.1496 188.97 58.9396C192.13 59.7296 194.6 61.5496 196.38 64.3996C198.17 67.2496 198.73 70.2696 198.06 73.4596C197.39 76.6496 195.73 79.0696 193.07 80.7396C190.41 82.4096 187.5 82.8396 184.34 82.0496C181.18 81.2596 178.71 79.4396 176.93 76.5896C175.14 73.7396 174.58 70.7196 175.25 67.5296ZM185.18 76.4996C186.79 76.8596 188.35 76.5696 189.86 75.6196C191.37 74.6796 192.31 73.3996 192.69 71.7896C193.07 70.1796 192.81 68.6496 191.9 67.1896C190.99 65.7396 189.73 64.8296 188.11 64.4796C186.49 64.1296 184.94 64.4196 183.43 65.3696C181.93 66.3096 180.98 67.5896 180.6 69.1896C180.22 70.7896 180.48 72.3196 181.39 73.7796C182.3 75.2296 183.56 76.1396 185.17 76.4996H185.18Z" fill="#F6F6F6"/>
<path d="M40.89 73.51L27.71 65.53L29.88 61.96L43.06 69.94L40.9 73.51H40.89Z" fill="#F6F6F6"/>
<path d="M47.54 57.7404L40.66 57.4504L47.56 63.4304L44.82 66.5904L33.18 56.5004L35.63 53.6704L43.3 54.0704L41.82 46.5204L44.27 43.6904L55.91 53.7804L53.17 56.9404L46.27 50.9604L47.53 57.7404H47.54Z" fill="#F6F6F6"/>
<path d="M49.54 39.1703L55.08 35.0103C56.43 34.0003 57.84 33.5803 59.3 33.7603C60.76 33.9403 61.96 34.6503 62.89 35.9003C63.82 37.1403 64.17 38.4903 63.93 39.9503C63.69 41.4003 62.9 42.6403 61.55 43.6503L59.35 45.3003L62.12 49.0003L58.78 51.5103L49.54 39.1803V39.1703ZM57.15 38.1403L55.13 39.6503L57.11 42.2903L59.13 40.7803C59.52 40.4903 59.75 40.1103 59.83 39.6403C59.91 39.1703 59.81 38.7603 59.55 38.4103C59.29 38.0603 58.92 37.8503 58.44 37.8003C57.97 37.7403 57.54 37.8603 57.15 38.1503V38.1403Z" fill="#F6F6F6"/>
<path d="M71.35 42.4699L64.54 28.6499L71.05 25.4399C72.51 24.7199 73.94 24.5799 75.33 25.0199C76.73 25.4599 77.75 26.3499 78.42 27.6999C78.69 28.2499 78.86 28.8099 78.94 29.3699C79.01 29.9299 79.01 30.4199 78.92 30.8299C78.84 31.2399 78.73 31.6099 78.6 31.9299C78.47 32.2499 78.35 32.4899 78.23 32.6399L78.04 32.9099L83.38 36.5299L79.44 38.4699L74.93 35.2899L72.95 36.2599L75.09 40.6099L71.34 42.4599L71.35 42.4699ZM74.74 30.7399C74.89 30.3399 74.86 29.9399 74.67 29.5499C74.48 29.1599 74.18 28.8999 73.77 28.7699C73.37 28.6499 72.95 28.6899 72.51 28.9099L69.95 30.1699L71.31 32.9299L73.87 31.6699C74.31 31.4499 74.6 31.1499 74.75 30.7499L74.74 30.7399Z" fill="#F6F6F6"/>
<path d="M88.94 31.2097L96.56 29.0497L97.52 32.4397L85.88 35.7397L81.68 20.9197L93.11 17.6797L94.07 21.0697L86.66 23.1697L87.32 25.4997L93.03 23.8797L93.93 27.0597L88.21 28.6797L88.93 31.2097H88.94Z" fill="#F6F6F6"/>
<path d="M109.23 15.6701L113.4 15.3301L114.66 30.6801L111.06 30.9801L103.76 22.9701L104.46 31.5201L100.3 31.8601L99.04 16.5101L102.66 16.2101L109.94 24.2201L109.24 15.6701H109.23Z" fill="#F6F6F6"/>
<path d="M118.7 15.4697L131.39 16.8397L130.99 20.5697L126.72 20.1097L125.47 31.6997L121.32 31.2497L122.57 19.6597L118.31 19.1997L118.71 15.4697H118.7Z" fill="#F6F6F6"/>
<path d="M140.33 31.5899L135.46 30.2299L133.52 33.1099L129.17 31.8999L138.93 18.6299L143.38 19.8699L144.86 36.2799L140.51 35.0699L140.33 31.5999V31.5899ZM140.16 28.1199L140 23.3899L137.41 27.3499L140.16 28.1199Z" fill="#F6F6F6"/>
</g>
<defs>
<clipPath id="clip0_7_175">
<rect width="224.99" height="225" fill="white"/>
</clipPath>
</defs>
</svg>
