<svg width="457" height="196" viewBox="0 0 457 196" fill="none" xmlns="http://www.w3.org/2000/svg">
<g clip-path="url(#clip0_1_401)">
<path d="M400.26 13.24H384.42V12.61L424.13 3.42L400.26 13.24Z" fill="#67AD31"/>
<path d="M246.95 70.71L245.98 71.36V113.58C233.91 113.07 197.3 110.19 147.6 93.8C129.94 87.98 0 96.05 0 96.05C0 96.05 95.62 68.46 120.66 66.2C143.55 64.15 232.16 58.88 282.49 47.2C274.87 52.21 263.6 59.65 246.95 70.71Z" fill="#67AD31"/>
<path d="M292.64 45.74L303.47 104.28L252.15 72.45C265.68 63.47 282.94 52.06 292.64 45.74Z" fill="#67AD31"/>
<path d="M269.23 187.09L256.87 195.21H253.82C253.82 195.21 254.2 191.3 253.98 185.71L269.23 187.1V187.09Z" fill="#67AD31"/>
<path d="M274.67 188.69L288.8 195.21H264.77L274.67 188.69Z" fill="#67AD31"/>
<path d="M304.02 109.72L295.13 127.41L295.01 127.61L282.07 153.39C279.56 155.05 263.14 166.67 267.4 182.57L253.7 181.33C253.01 173.88 251.13 164.87 246.45 157.98C246.45 157.98 267.27 138.76 250.32 113.74V76.41L304.02 109.72Z" fill="#67AD31"/>
<path d="M295.93 171.48L309.01 176.59H282.7L282.63 171.48H295.93Z" fill="#67AD31"/>
<path d="M311.89 127.12L311.59 131.99C311.59 131.99 298.44 138.73 296.5 147.4C295.21 153.18 295.36 161.96 295.6 167.15H282.58L282.51 162.14L298.15 131.05L311.9 127.12H311.89Z" fill="#67AD31"/>
<path d="M331.81 121.43L363.16 112.48L363.32 113.13L362.92 129.89L363.61 137.17V137.21L364.52 150.28C364.52 150.28 341.45 138.41 331.81 121.43Z" fill="#67AD31"/>
<path d="M378.19 112.18L383.78 138.08L367.58 133.27L367.25 129.75L367.36 125.3L373.21 122.3L378.19 112.18Z" fill="#67AD31"/>
<path d="M349.79 59.15L362.11 108.28L300.78 125.79L308.87 109.69L296.72 44.08L349.79 59.15Z" fill="#67AD31"/>
<path d="M389.24 56.61L366.11 106.42L353.83 57.49L380.24 24.3L380.63 53.31L389.24 56.61Z" fill="#67AD31"/>
<path d="M393.3 58.17L397.69 59.86L376.72 105.35V105.36L369.96 119.11L367.48 120.38L367.65 113.38L393.3 58.17Z" fill="#67AD31"/>
<path d="M404.92 15.99L426.97 6.94L454.44 47.73L448.03 50.11L404.92 15.99Z" fill="#67AD31"/>
<path d="M399.94 17.57L445.27 53.45L442.48 68.51L399.67 55.98L399.57 55.95L399.51 55.93L384.92 50.32L384.49 17.57H399.94Z" fill="#67AD31"/>
<path d="M456.93 51.44L453.09 65.57L446.67 69.74L449.53 54.17L456.92 51.43L456.93 51.44Z" fill="#67AD31"/>
<path d="M294.96 127.45L295.12 127.41L295.01 127.61L294.96 127.45Z" fill="#67AD31"/>
<path d="M384.43 13.24H384.42V12.61L384.43 13.24Z" fill="#67AD31"/>
<path d="M31.96 36.11L39.85 67.49L31.27 69.65L25.3 45.91L14.23 48.7L20.2 72.44L11.62 74.6L3.73 43.22L31.96 36.12V36.11Z" fill="#141414"/>
<path d="M41.51 33.84L55.81 30.57C59.3 29.77 62.37 30.17 65.04 31.75C67.71 33.33 69.4 35.72 70.13 38.9C70.86 42.08 70.37 44.97 68.65 47.56C66.93 50.15 64.34 51.85 60.87 52.64L55.19 53.94L57.36 63.4L48.74 65.38L41.52 33.84H41.51ZM57.1 38.35L51.89 39.54L53.44 46.29L58.65 45.1C59.65 44.87 60.43 44.34 60.99 43.5C61.55 42.66 61.72 41.79 61.51 40.89C61.3 39.99 60.77 39.28 59.9 38.77C59.04 38.26 58.1 38.12 57.1 38.35Z" fill="#141414"/>
<path d="M75.41 26.15L84.08 24.36L87.72 42.02L97.76 21.54L105.29 19.99L111.82 51.68L103.16 53.47L99.52 35.81L89.44 56.3L81.96 57.84L75.43 26.15H75.41Z" fill="#141414"/>
<path d="M144.18 12.88L149.89 44.73L141.18 46.29L138.98 34.01L127.29 36.1L129.49 48.38L120.78 49.94L115.08 18.09L123.79 16.53L125.91 28.37L137.6 26.28L135.48 14.44L144.19 12.88H144.18Z" fill="#141414"/>
<path d="M151.26 11.72L177.97 7.69L179.14 15.48L170.15 16.84L173.8 41.05L165.05 42.37L161.4 18.16L152.43 19.51L151.26 11.72Z" fill="#141414"/>
<path d="M212.83 7.6C216.72 10.53 218.94 14.32 219.48 18.97C220.02 23.62 218.74 27.81 215.63 31.56C212.52 35.31 208.45 37.48 203.43 38.06C198.41 38.65 193.95 37.47 190.06 34.54C186.17 31.61 183.95 27.82 183.41 23.17C182.87 18.52 184.15 14.33 187.26 10.58C190.37 6.83 194.44 4.67 199.46 4.08C204.48 3.49 208.94 4.67 212.83 7.6ZM194.26 15.27C192.73 17.21 192.12 19.5 192.43 22.13C192.74 24.76 193.86 26.85 195.79 28.39C197.72 29.93 199.97 30.56 202.53 30.26C205.09 29.96 207.13 28.84 208.65 26.89C210.17 24.94 210.78 22.65 210.47 20.02C210.16 17.39 209.05 15.31 207.12 13.77C205.19 12.23 202.95 11.61 200.39 11.91C197.83 12.21 195.79 13.33 194.26 15.27Z" fill="#141414"/>
<path d="M243.97 16.27C244.13 16.32 244.34 16.39 244.61 16.48C244.88 16.57 245.37 16.81 246.06 17.19C246.75 17.57 247.38 18.02 247.93 18.54C248.48 19.06 249 19.8 249.49 20.75C249.97 21.7 250.26 22.77 250.34 23.94C250.54 26.73 249.53 29.16 247.31 31.23C245.09 33.3 241.92 34.49 237.79 34.78C236.19 34.89 234.61 34.81 233.07 34.54C231.53 34.27 230.23 33.89 229.18 33.42C228.14 32.95 227.2 32.48 226.38 31.99C225.56 31.51 224.94 31.08 224.53 30.72L223.92 30.2L228.67 24.55C228.9 24.75 229.23 25 229.67 25.3C230.11 25.61 230.98 26 232.27 26.46C233.56 26.93 234.83 27.11 236.07 27.03C237.61 26.92 238.79 26.51 239.6 25.81C240.41 25.1 240.78 24.32 240.72 23.45C240.59 21.6 239.06 20.79 236.12 21.02L231.92 21.32L231.4 13.94L235.12 13.68C236.45 13.59 237.42 13.28 238.04 12.75C238.66 12.22 238.94 11.58 238.88 10.81C238.83 10.08 238.45 9.5 237.73 9.09C237.02 8.68 235.95 8.53 234.53 8.63C233.5 8.7 232.51 8.97 231.56 9.42C230.61 9.87 229.94 10.31 229.54 10.73L228.88 11.34L223.4 6.39C223.48 6.26 223.62 6.09 223.82 5.86C224.02 5.64 224.48 5.21 225.2 4.59C225.92 3.97 226.7 3.42 227.55 2.94C228.4 2.46 229.52 2 230.93 1.54C232.34 1.08 233.82 0.79 235.36 0.68C239.02 0.42 242.05 1.14 244.46 2.84C246.87 4.54 248.16 6.6 248.33 9.03C248.45 10.67 248.14 12.09 247.4 13.29C246.66 14.5 245.9 15.3 245.11 15.7L243.94 16.28L243.97 16.27Z" fill="#141414"/>
<path d="M275.8 25.42L265.09 25.56L262.86 32.52L253.31 32.64L265.24 0.13L275.02 0L287.78 32.19L278.23 32.31L275.8 25.41V25.42ZM273.39 18.52L270.24 9.08L267.34 18.59L273.39 18.51V18.52Z" fill="#141414"/>
<path d="M308.18 33.74L292.63 32.43L295.34 0.199997L309.96 1.43C313.3 1.71 315.92 2.78 317.81 4.65C319.71 6.52 320.56 8.59 320.37 10.89C320.3 11.78 320.08 12.61 319.73 13.38C319.38 14.16 318.97 14.77 318.53 15.21C318.08 15.66 317.64 16.04 317.21 16.36C316.78 16.68 316.41 16.9 316.09 17.02L315.64 17.21C315.79 17.28 315.99 17.39 316.24 17.52C316.49 17.65 316.94 17.96 317.57 18.42C318.2 18.89 318.75 19.41 319.22 19.97C319.69 20.54 320.09 21.3 320.43 22.25C320.77 23.2 320.89 24.21 320.8 25.29C320.59 27.81 319.3 29.92 316.92 31.62C314.55 33.32 311.63 34.03 308.17 33.74H308.18ZM302.03 26.28L308.06 26.79C309.09 26.88 309.95 26.64 310.65 26.08C311.35 25.52 311.74 24.78 311.82 23.86C311.9 22.94 311.64 22.14 311.04 21.47C310.44 20.8 309.63 20.42 308.6 20.34L302.57 19.83L302.03 26.28ZM308.45 8.27L303.58 7.86L303.12 13.37L307.99 13.78C308.91 13.86 309.67 13.67 310.25 13.21C310.84 12.75 311.16 12.11 311.23 11.28C311.3 10.45 311.08 9.76 310.58 9.21C310.08 8.66 309.37 8.35 308.44 8.27H308.45Z" fill="#141414"/>
<path d="M334.19 4.3L348.4 7.95C351.87 8.84 354.42 10.6 356.06 13.24C357.7 15.87 358.12 18.77 357.31 21.93C356.5 25.09 354.74 27.43 352.02 28.95C349.31 30.47 346.22 30.78 342.77 29.9L337.13 28.45L334.72 37.85L326.15 35.65L334.19 4.31V4.3ZM345.98 15.46L340.8 14.13L339.08 20.84L344.26 22.17C345.26 22.43 346.2 22.31 347.07 21.82C347.95 21.33 348.5 20.64 348.73 19.74C348.96 18.84 348.81 17.97 348.28 17.12C347.75 16.27 346.98 15.72 345.98 15.46Z" fill="#141414"/>
<path d="M14.77 155.42H9.73V144.3H14.5C15.51 144.3 16.34 144.59 17 145.18C17.66 145.77 17.99 146.45 17.99 147.24C17.99 147.53 17.95 147.82 17.87 148.08C17.79 148.35 17.68 148.57 17.55 148.74C17.42 148.92 17.29 149.07 17.17 149.19C17.04 149.32 16.94 149.41 16.86 149.46L16.73 149.54C16.78 149.56 16.85 149.59 16.93 149.63C17.01 149.67 17.16 149.76 17.37 149.92C17.58 150.07 17.77 150.24 17.93 150.42C18.09 150.6 18.24 150.85 18.37 151.16C18.5 151.47 18.57 151.81 18.57 152.16C18.57 153.05 18.22 153.81 17.51 154.46C16.8 155.1 15.9 155.42 14.8 155.42H14.77ZM14.34 146.29H12.12V148.68H14.34C14.73 148.68 15.04 148.57 15.27 148.35C15.5 148.13 15.61 147.84 15.61 147.48C15.61 147.12 15.5 146.83 15.27 146.61C15.04 146.39 14.73 146.28 14.34 146.28V146.29ZM12.12 153.44H14.66C15.09 153.44 15.45 153.3 15.74 153.03C16.03 152.76 16.17 152.42 16.17 152.01C16.17 151.6 16.03 151.27 15.74 150.99C15.45 150.71 15.09 150.58 14.66 150.58H12.12V153.44Z" fill="black"/>
<path d="M26.96 152.8H22.67L21.72 155.42H19.18L23.55 144.3H26.09L30.46 155.42H27.92L26.97 152.8H26.96ZM26.17 150.74L24.82 147.09L23.46 150.74H26.17Z" fill="black"/>
<path d="M46.03 144.3V155.42H32.05V144.3H34.44V153.28H37.85V144.3H40.23V153.28H43.64V144.3H46.03Z" fill="black"/>
<path d="M55.39 152.8H51.1L50.15 155.42H47.61L51.98 144.3H54.52L58.89 155.42H56.35L55.4 152.8H55.39ZM54.6 150.74L53.25 147.09L51.89 150.74H54.6Z" fill="black"/>
<path d="M8.3 172.34H8.94C8.94 172.34 9.04 172.23 9.12 172.14C9.2 172.05 9.34 171.84 9.54 171.52C9.74 171.2 9.92 170.84 10.07 170.45C10.22 170.06 10.36 169.54 10.49 168.88C10.62 168.22 10.68 167.52 10.68 166.78V163.36H18.38V172.34H19.74V176.78H17.35V174.48H10.68V176.78H8.3V172.34ZM13.07 166.78C13.07 167.52 13.01 168.22 12.89 168.87C12.77 169.52 12.62 170.06 12.46 170.46C12.3 170.86 12.12 171.21 11.95 171.51C11.78 171.8 11.64 172.02 11.52 172.15L11.33 172.34H16.01V165.51H13.07V166.78Z" fill="black"/>
<path d="M22.67 173.02C21.5 171.89 20.92 170.52 20.92 168.92C20.92 167.32 21.5 165.96 22.67 164.83C23.84 163.7 25.27 163.13 26.96 163.13C28.65 163.13 30.08 163.7 31.25 164.83C32.42 165.96 33 167.33 33 168.92C33 170.51 32.42 171.88 31.25 173.02C30.08 174.16 28.65 174.72 26.96 174.72C25.27 174.72 23.84 174.15 22.67 173.02ZM24.43 166.33C23.74 167.04 23.39 167.9 23.39 168.93C23.39 169.96 23.74 170.82 24.43 171.52C25.12 172.22 25.97 172.58 26.96 172.58C27.95 172.58 28.8 172.23 29.49 171.52C30.18 170.82 30.53 169.95 30.53 168.93C30.53 167.91 30.18 167.04 29.49 166.33C28.8 165.62 27.95 165.27 26.96 165.27C25.97 165.27 25.12 165.62 24.43 166.33Z" fill="black"/>
<path d="M41.17 168.21L45.02 163.36H47.13V174.48H44.75V167.07L41.17 171.62L37.6 167.1V174.48H35.21V163.36H37.36L41.17 168.21Z" fill="black"/>
<path d="M56.5 171.86H52.21L51.26 174.48H48.72L53.09 163.36H55.63L60 174.48H57.46L56.51 171.86H56.5ZM55.71 169.8L54.36 166.15L53 169.8H55.71Z" fill="black"/>
<path d="M75.56 163.36V174.48H61.58V163.36H63.97V172.34H67.38V163.36H69.76V172.34H73.17V163.36H75.56Z" fill="black"/>
<path d="M87.94 163.36V174.48H85.56V169.95H80.8V174.48H78.41V163.36H80.8V167.81H85.56V163.36H87.94Z" fill="black"/>
<path d="M99.05 163.36V174.48H96.67V170.59H94.61L92.46 174.48H89.92L92.3 170.27C92.25 170.25 92.18 170.22 92.09 170.17C92 170.12 91.84 170 91.61 169.81C91.38 169.62 91.18 169.41 91.01 169.19C90.83 168.97 90.68 168.66 90.53 168.27C90.39 167.88 90.32 167.46 90.32 167.01C90.32 165.98 90.68 165.11 91.4 164.41C92.12 163.71 93.03 163.36 94.13 163.36H99.05ZM92.7 167.02C92.7 167.42 92.84 167.76 93.13 168.04C93.42 168.32 93.78 168.45 94.21 168.45H96.67V165.51H94.21C93.78 165.51 93.42 165.65 93.13 165.94C92.84 166.22 92.7 166.58 92.7 167.02Z" fill="black"/>
<path d="M110.17 163.36V174.48H107.79V170.59H105.73L103.58 174.48H101.04L103.42 170.27C103.37 170.25 103.3 170.22 103.21 170.17C103.12 170.12 102.96 170 102.73 169.81C102.5 169.62 102.3 169.41 102.13 169.19C101.95 168.97 101.8 168.66 101.65 168.27C101.51 167.88 101.44 167.46 101.44 167.01C101.44 165.98 101.8 165.11 102.52 164.41C103.24 163.71 104.15 163.36 105.25 163.36H110.17ZM103.82 167.02C103.82 167.42 103.96 167.76 104.25 168.04C104.54 168.32 104.9 168.45 105.33 168.45H107.79V165.51H105.33C104.9 165.51 104.54 165.65 104.25 165.94C103.96 166.22 103.82 166.58 103.82 167.02Z" fill="black"/>
<path d="M8.62 182.42H17.35V184.57H14.18V193.54H11.8V184.57H8.62V182.42Z" fill="black"/>
<path d="M29.03 193.55H26.65V186.48L21.17 193.55H19.1V182.43H21.49V189.5L26.97 182.43H29.03V193.55Z" fill="black"/>
<path d="M41.34 182.42V193.54H38.96V184.57H34.28V193.54H31.89V182.42H41.34Z" fill="black"/>
<path d="M45.3 192.08C44.13 190.95 43.55 189.58 43.55 187.98C43.55 186.38 44.13 185.02 45.3 183.89C46.47 182.76 47.9 182.19 49.59 182.19C51.28 182.19 52.71 182.76 53.88 183.89C55.05 185.02 55.63 186.39 55.63 187.98C55.63 189.57 55.05 190.94 53.88 192.08C52.71 193.22 51.28 193.78 49.59 193.78C47.9 193.78 46.47 193.21 45.3 192.08ZM47.06 185.39C46.37 186.1 46.02 186.96 46.02 187.99C46.02 189.02 46.37 189.88 47.06 190.58C47.75 191.28 48.6 191.64 49.59 191.64C50.58 191.64 51.43 191.29 52.12 190.58C52.81 189.88 53.16 189.01 53.16 187.99C53.16 186.97 52.81 186.1 52.12 185.39C51.43 184.68 50.58 184.33 49.59 184.33C48.6 184.33 47.75 184.68 47.06 185.39Z" fill="black"/>
<path d="M57.85 193.55V182.43H65.4V184.58H60.24V193.55H57.85Z" fill="black"/>
<path d="M66.98 182.42H71.66C72.8 182.42 73.75 182.78 74.5 183.49C75.25 184.21 75.63 185.09 75.63 186.15C75.63 187.21 75.25 188.09 74.51 188.81C73.76 189.53 72.81 189.88 71.66 189.88H69.36V193.53H66.97V182.41L66.98 182.42ZM71.58 184.57H69.36V187.74H71.58C72.06 187.74 72.45 187.59 72.77 187.28C73.09 186.97 73.25 186.6 73.25 186.16C73.25 185.72 73.09 185.34 72.77 185.03C72.45 184.72 72.06 184.57 71.58 184.57Z" fill="black"/>
<path d="M83.33 190.92H79.04L78.09 193.54H75.55L79.92 182.42H82.46L86.83 193.54H84.29L83.34 190.92H83.33ZM82.54 188.86L81.19 185.21L79.83 188.86H82.54Z" fill="black"/>
<path d="M94.45 192.44V193.87H92.07V192.44C90.59 192.4 89.37 191.93 88.42 191.04C87.47 190.15 86.99 189.08 86.99 187.83C86.99 186.58 87.47 185.51 88.42 184.62C89.37 183.73 90.59 183.27 92.07 183.22V182.03H94.45V183.22C95.93 183.26 97.15 183.73 98.11 184.62C99.07 185.51 99.54 186.58 99.54 187.83C99.54 189.08 99.06 190.15 98.11 191.04C97.16 191.93 95.94 192.4 94.45 192.44ZM90.1 186.05C89.61 186.52 89.37 187.11 89.37 187.83C89.37 188.55 89.61 189.14 90.1 189.61C90.59 190.08 91.24 190.33 92.07 190.37V185.29C91.24 185.33 90.59 185.58 90.1 186.05ZM96.42 189.61C96.91 189.14 97.15 188.55 97.15 187.83C97.15 187.11 96.91 186.52 96.42 186.05C95.93 185.58 95.27 185.33 94.45 185.29V190.37C95.28 190.33 95.93 190.08 96.42 189.61Z" fill="black"/>
<path d="M111.52 193.55H109.14V186.48L103.66 193.55H101.59V182.43H103.98V189.5L109.46 182.43H111.52V193.55Z" fill="black"/>
<path d="M122.63 182.42V193.54H120.25V189.65H118.19L116.04 193.54H113.5L115.88 189.33C115.83 189.31 115.76 189.28 115.67 189.23C115.58 189.18 115.42 189.06 115.19 188.87C114.96 188.68 114.76 188.47 114.59 188.25C114.41 188.03 114.26 187.72 114.11 187.33C113.97 186.94 113.9 186.52 113.9 186.07C113.9 185.04 114.26 184.17 114.98 183.47C115.7 182.77 116.61 182.42 117.71 182.42H122.63ZM116.28 186.08C116.28 186.48 116.42 186.82 116.71 187.1C117 187.38 117.36 187.51 117.79 187.51H120.25V184.57H117.79C117.36 184.57 117 184.71 116.71 185C116.42 185.28 116.28 185.64 116.28 186.08Z" fill="black"/>
</g>
<defs>
<clipPath id="clip0_1_401">
<rect width="456.93" height="195.21" fill="white"/>
</clipPath>
</defs>
</svg>
