<svg width="457" height="193" viewBox="0 0 457 193" fill="none" xmlns="http://www.w3.org/2000/svg">
<g clip-path="url(#clip0_7_83)">
<path d="M400.26 10.4196H384.42V9.79961L424.13 0.599609L400.26 10.4196Z" fill="#67AD31"/>
<path d="M246.95 67.8899L245.98 68.5399V110.76C233.91 110.25 197.3 107.37 147.6 90.9799C129.94 85.1599 0 93.2299 0 93.2299C0 93.2299 95.62 65.6399 120.66 63.3799C143.55 61.3299 232.16 56.0599 282.49 44.3799C274.87 49.3899 263.6 56.8299 246.95 67.8899Z" fill="#67AD31"/>
<path d="M292.64 42.9297L303.47 101.47L252.15 69.6397C265.68 60.6597 282.94 49.2497 292.64 42.9297Z" fill="#67AD31"/>
<path d="M269.23 184.279L256.87 192.399H253.82C253.82 192.399 254.2 188.489 253.98 182.899L269.23 184.289V184.279Z" fill="#67AD31"/>
<path d="M274.67 185.88L288.8 192.39H264.77L274.67 185.88Z" fill="#67AD31"/>
<path d="M304.02 106.91L295.13 124.6L295.01 124.8L282.07 150.58C279.56 152.24 263.14 163.86 267.4 179.76L253.7 178.52C253.01 171.07 251.13 162.06 246.45 155.17C246.45 155.17 267.27 135.95 250.32 110.93V73.5996L304.02 106.91Z" fill="#67AD31"/>
<path d="M295.93 168.67L309.01 173.78H282.7L282.63 168.67H295.93Z" fill="#67AD31"/>
<path d="M311.89 124.31L311.59 129.18C311.59 129.18 298.44 135.92 296.5 144.59C295.21 150.37 295.36 159.15 295.6 164.34H282.58L282.51 159.33L298.15 128.24L311.9 124.31H311.89Z" fill="#67AD31"/>
<path d="M331.81 118.62L363.16 109.67L363.32 110.32L362.92 127.08L363.61 134.36V134.4L364.52 147.47C364.52 147.47 341.45 135.6 331.81 118.62Z" fill="#67AD31"/>
<path d="M378.19 109.36L383.78 135.27L367.58 130.46L367.25 126.94L367.36 122.49L373.21 119.49L378.19 109.36Z" fill="#67AD31"/>
<path d="M349.79 56.3395L362.11 105.46L300.78 122.98L308.87 106.88L296.72 41.2695L349.79 56.3395Z" fill="#67AD31"/>
<path d="M389.24 53.7995L366.11 103.599L353.83 54.6795L380.24 21.4795L380.63 50.4895L389.24 53.7995Z" fill="#67AD31"/>
<path d="M393.3 55.3604L397.69 57.0504L376.72 102.53V102.55L369.96 116.29L367.48 117.57L367.65 110.56L393.3 55.3604Z" fill="#67AD31"/>
<path d="M404.92 13.1799L426.97 4.12988L454.44 44.9199L448.03 47.2999L404.92 13.1799Z" fill="#67AD31"/>
<path d="M399.94 14.75L445.27 50.64L442.48 65.7L399.67 53.16L399.57 53.13L399.51 53.12L384.92 47.5L384.49 14.75H399.94Z" fill="#67AD31"/>
<path d="M456.93 48.6304L453.09 62.7504L446.67 66.9203L449.53 51.3604L456.92 48.6104L456.93 48.6304Z" fill="#67AD31"/>
<path d="M294.96 124.64L295.12 124.6L295.01 124.8L294.96 124.64Z" fill="#67AD31"/>
<path d="M384.43 10.4198H384.42V9.7998L384.43 10.4198Z" fill="#67AD31"/>
<path d="M4.08002 43.38L17 40.1C20.15 39.3 22.96 39.59 25.41 40.98C27.87 42.37 29.46 44.5 30.19 47.37C30.92 50.25 30.53 52.88 29.03 55.27C27.53 57.66 25.2 59.26 22.07 60.05L16.94 61.35L19.11 69.9L11.32 71.88L4.08002 43.38ZM18.34 47.14L13.63 48.34L15.18 54.44L19.89 53.24C20.8 53.01 21.5 52.51 21.98 51.74C22.47 50.97 22.61 50.17 22.4 49.36C22.19 48.55 21.69 47.91 20.9 47.47C20.1 47.02 19.25 46.92 18.34 47.15V47.14Z" fill="#141414"/>
<path d="M41.36 64.3304L34.66 35.7004L48.27 32.5204C51.32 31.8104 54.05 32.1604 56.47 33.5804C58.89 35.0004 60.43 37.1004 61.08 39.8804C61.35 41.0304 61.43 42.1304 61.32 43.2004C61.21 44.2704 60.99 45.1704 60.65 45.9104C60.31 46.6404 59.95 47.2804 59.57 47.8304C59.19 48.3804 58.86 48.7704 58.57 49.0004L58.1 49.4304L66.52 58.4504L58.29 60.3804L51.23 52.5304L47.1 53.5004L49.21 62.5104L41.38 64.3404L41.36 64.3304ZM52.85 43.9504C53.3 43.2704 53.43 42.5204 53.24 41.7004C53.05 40.8804 52.6 40.2704 51.9 39.8704C51.2 39.4704 50.39 39.3704 49.48 39.5804L44.13 40.8304L45.47 46.5404L50.82 45.2904C51.73 45.0804 52.41 44.6304 52.86 43.9504H52.85Z" fill="#141414"/>
<path d="M72.61 57.1297L66.31 28.3997L74.16 26.6797L80.46 55.4097L72.61 57.1297Z" fill="#141414"/>
<path d="M102.04 20.8803L109.92 19.2803L115.76 48.1003L108.95 49.4803L93.22 35.9503L96.47 52.0103L88.59 53.6103L82.75 24.7903L89.6 23.4003L105.29 36.9403L102.04 20.8803Z" fill="#141414"/>
<path d="M116.21 18.0905L140.38 13.7305L141.65 20.7705L133.51 22.2405L137.46 44.1405L129.55 45.5705L125.6 23.6705L117.48 25.1405L116.21 18.1005V18.0905Z" fill="#141414"/>
<path d="M171.85 12.52C175.49 15.05 177.63 18.41 178.28 22.61C178.93 26.81 177.91 30.67 175.22 34.18C172.52 37.69 168.9 39.8 164.36 40.51C159.82 41.22 155.73 40.31 152.09 37.78C148.45 35.25 146.31 31.89 145.66 27.69C145.01 23.49 146.03 19.63 148.72 16.12C151.42 12.61 155.03 10.5 159.58 9.79002C164.12 9.08002 168.21 9.99002 171.85 12.52ZM155.24 20.13C153.92 21.95 153.44 24.05 153.81 26.42C154.18 28.8 155.27 30.65 157.08 31.99C158.89 33.33 160.96 33.82 163.27 33.46C165.58 33.1 167.4 32.01 168.71 30.19C170.02 28.37 170.5 26.27 170.13 23.89C169.76 21.51 168.67 19.66 166.87 18.33C165.07 17 163.01 16.51 160.69 16.87C158.37 17.23 156.56 18.32 155.24 20.14V20.13Z" fill="#141414"/>
<path d="M198.12 25.8601C198.05 25.3301 197.74 24.9001 197.19 24.5701C196.64 24.2401 195.94 23.9901 195.11 23.8401C194.28 23.6801 193.36 23.5201 192.34 23.3501C191.33 23.1801 190.31 22.9301 189.29 22.6001C188.27 22.2701 187.32 21.8501 186.44 21.3201C185.56 20.8001 184.8 20.0401 184.17 19.0401C183.53 18.0401 183.13 16.8601 182.96 15.4701C182.66 13.0801 183.45 10.8601 185.31 8.80008C187.17 6.74008 189.73 5.51008 192.99 5.11008C194.33 4.94008 195.61 4.93008 196.84 5.08008C198.07 5.22008 199.08 5.45008 199.89 5.77008C200.7 6.08008 201.42 6.40008 202.04 6.73008C202.66 7.06008 203.1 7.37008 203.36 7.65008L203.8 8.01008L199.76 13.3901C199.6 13.2401 199.38 13.0601 199.08 12.8401C198.78 12.6201 198.19 12.3501 197.29 12.0201C196.4 11.6901 195.52 11.5801 194.66 11.6901C193.76 11.8001 193.04 12.1501 192.5 12.7201C191.96 13.3001 191.73 13.9201 191.81 14.5801C191.88 15.1101 192.19 15.5401 192.74 15.8601C193.29 16.1801 193.99 16.4301 194.82 16.5901C195.65 16.7501 196.57 16.9201 197.57 17.0901C198.57 17.2601 199.59 17.5101 200.62 17.8401C201.65 18.1701 202.61 18.5901 203.49 19.1201C204.37 19.6501 205.12 20.4001 205.76 21.4001C206.4 22.4001 206.8 23.5901 206.97 24.9701C207.3 27.6701 206.51 30.0801 204.6 32.1901C202.68 34.3001 199.94 35.5801 196.39 36.0201C194.94 36.2001 193.52 36.2001 192.13 36.0201C190.74 35.8401 189.58 35.5601 188.65 35.1801C187.72 34.8001 186.89 34.4101 186.16 34.0001C185.43 33.5901 184.88 33.2301 184.53 32.9201L184.02 32.4701L188.04 27.1101C188.1 27.1801 188.22 27.2801 188.38 27.4001C188.54 27.5201 188.85 27.7301 189.31 28.0501C189.77 28.3601 190.25 28.6301 190.75 28.8501C191.25 29.0701 191.86 29.2501 192.59 29.3801C193.31 29.5101 194.03 29.5301 194.72 29.4501C195.84 29.3101 196.72 28.8901 197.34 28.1901C197.97 27.4901 198.23 26.7201 198.12 25.8601Z" fill="#141414"/>
<path d="M230.6 25.2603L220.9 26.1203L219.35 32.5803L210.7 33.3403L219.3 3.06027L228.15 2.28027L241.91 30.5903L233.26 31.3503L230.59 25.2703L230.6 25.2603ZM227.95 19.1803L224.45 10.8403L222.47 19.6603L227.95 19.1803Z" fill="#141414"/>
<path d="M254.11 22.0595C255.23 23.1495 256.55 23.6695 258.05 23.6195C259.55 23.5595 260.82 22.9495 261.86 21.7695C262.9 20.5995 263.39 19.1795 263.32 17.5295L262.68 0.319531L270.72 0.0195312L271.36 17.2295C271.5 20.9195 270.33 24.0595 267.86 26.6495C265.39 29.2395 262.21 30.6095 258.31 30.7495C254.41 30.8895 251.14 29.7695 248.48 27.3695C245.82 24.9695 244.43 21.9295 244.29 18.2395L243.65 1.02953L251.69 0.729531L252.33 17.9395C252.39 19.5895 252.98 20.9695 254.11 22.0595Z" fill="#141414"/>
<path d="M279.51 29.39L280.65 0L294.61 0.54C297.74 0.66 300.28 1.73 302.23 3.74C304.19 5.75 305.11 8.19 305 11.04C304.95 12.21 304.74 13.3 304.35 14.31C303.96 15.32 303.5 16.12 302.98 16.74C302.46 17.36 301.94 17.88 301.43 18.3C300.92 18.72 300.49 19.01 300.16 19.16L299.59 19.45L305.31 30.39L296.86 30.06L292.14 20.62L287.91 20.46L287.55 29.7L279.51 29.39ZM296 12.79C296.61 12.25 296.94 11.56 296.97 10.72C297 9.88 296.73 9.17 296.16 8.6C295.59 8.02 294.83 7.72 293.9 7.68L288.41 7.47L288.18 13.33L293.67 13.54C294.61 13.58 295.38 13.33 296 12.79Z" fill="#141414"/>
<path d="M311 31.19L314.56 2L322.54 2.97L318.98 32.16L311 31.18V31.19Z" fill="#141414"/>
<path d="M358.86 14.9901C361.13 18.7901 361.7 22.7401 360.57 26.8401C359.43 30.9401 356.92 34.0301 353.01 36.1201C349.11 38.2101 344.94 38.6401 340.51 37.4101C336.08 36.1801 332.73 33.6701 330.46 29.8701C328.19 26.0701 327.62 22.1201 328.75 18.0201C329.88 13.9201 332.4 10.8301 336.31 8.74014C340.21 6.65014 344.38 6.22014 348.81 7.45014C353.24 8.68014 356.59 11.1901 358.86 14.9901ZM340.59 15.0801C338.64 16.1901 337.34 17.9101 336.7 20.2301C336.06 22.5501 336.29 24.6901 337.39 26.6601C338.49 28.6201 340.17 29.9201 342.43 30.5401C344.69 31.1701 346.79 30.9201 348.74 29.8001C350.69 28.6801 351.98 26.9601 352.63 24.6401C353.27 22.3201 353.05 20.1801 351.95 18.2301C350.85 16.2701 349.18 14.9801 346.92 14.3601C344.66 13.7301 342.56 13.9801 340.61 15.0901L340.59 15.0801Z" fill="#141414"/>
<path d="M14.58 149.35C14.58 148.98 14.39 148.68 14.02 148.45C13.65 148.22 13.19 148.03 12.65 147.88C12.11 147.73 11.57 147.55 11.04 147.34C10.51 147.13 10.05 146.79 9.67 146.32C9.29 145.84 9.1 145.24 9.1 144.51C9.1 143.61 9.46 142.84 10.18 142.21C10.9 141.57 11.84 141.26 12.99 141.26C13.45 141.26 13.88 141.31 14.31 141.42C14.74 141.53 15.08 141.65 15.35 141.79C15.62 141.93 15.86 142.08 16.06 142.22C16.26 142.37 16.41 142.49 16.5 142.6L16.64 142.76L15.21 144.27C15.15 144.2 15.06 144.11 14.95 144C14.84 143.89 14.61 143.75 14.25 143.58C13.89 143.41 13.53 143.32 13.15 143.32C12.69 143.32 12.33 143.44 12.05 143.67C11.77 143.9 11.63 144.18 11.63 144.52C11.63 144.89 11.82 145.19 12.19 145.42C12.56 145.64 13.02 145.84 13.55 145.99C14.09 146.15 14.62 146.33 15.16 146.53C15.7 146.74 16.16 147.08 16.54 147.55C16.92 148.02 17.11 148.63 17.11 149.36C17.11 150.39 16.74 151.23 15.99 151.88C15.24 152.53 14.21 152.86 12.9 152.86C12.38 152.86 11.88 152.8 11.4 152.67C10.92 152.54 10.52 152.39 10.21 152.22C9.9 152.04 9.62 151.87 9.38 151.68C9.14 151.5 8.97 151.35 8.87 151.22L8.69 151.03L10.13 149.6C10.2 149.68 10.3 149.79 10.44 149.92C10.58 150.05 10.87 150.23 11.32 150.45C11.77 150.67 12.25 150.78 12.75 150.78C13.32 150.78 13.77 150.65 14.1 150.38C14.42 150.11 14.58 149.77 14.58 149.36V149.35Z" fill="black"/>
<path d="M22.28 149.95C22.76 150.45 23.34 150.71 24.02 150.71C24.7 150.71 25.28 150.46 25.76 149.96C26.24 149.46 26.48 148.84 26.48 148.09V141.5H28.86V148.09C28.86 149.44 28.4 150.58 27.48 151.49C26.56 152.4 25.41 152.86 24.02 152.86C22.63 152.86 21.48 152.4 20.56 151.49C19.64 150.58 19.18 149.44 19.18 148.09V141.5H21.56V148.09C21.56 148.83 21.8 149.45 22.29 149.96L22.28 149.95Z" fill="black"/>
<path d="M9.72998 171.67V160.55H12.12V171.67H9.72998Z" fill="black"/>
<path d="M20.92 165.4L24.77 160.55H26.88V171.67H24.5V164.26L20.92 168.81L17.35 164.29V171.67H14.96V160.55H17.11L20.92 165.4Z" fill="black"/>
<path d="M29.73 160.55H34.41C35.55 160.55 36.5 160.91 37.25 161.62C38 162.34 38.38 163.22 38.38 164.28C38.38 165.34 38 166.22 37.26 166.94C36.51 167.66 35.56 168.01 34.41 168.01H32.11V171.66H29.72V160.54L29.73 160.55ZM34.34 162.7H32.12V165.87H34.34C34.82 165.87 35.21 165.72 35.53 165.41C35.85 165.1 36.01 164.73 36.01 164.29C36.01 163.85 35.85 163.47 35.53 163.16C35.21 162.85 34.82 162.7 34.34 162.7Z" fill="black"/>
<path d="M40.53 171.67V160.55H45.45C46.55 160.55 47.46 160.9 48.18 161.61C48.9 162.32 49.26 163.18 49.26 164.2C49.26 164.64 49.19 165.06 49.05 165.45C48.91 165.84 48.75 166.15 48.56 166.39C48.37 166.63 48.18 166.83 47.98 167C47.78 167.17 47.62 167.29 47.48 167.35L47.28 167.46L49.66 171.67H47.12L44.98 167.78H42.92V171.67H40.53ZM46.89 164.2C46.89 163.77 46.75 163.41 46.46 163.12C46.17 162.83 45.81 162.69 45.38 162.69H42.92V165.63H45.38C45.81 165.63 46.17 165.49 46.46 165.22C46.75 164.94 46.89 164.6 46.89 164.2Z" fill="black"/>
<path d="M54.19 169.53H60.15V171.67H51.8V160.55H59.98V162.7H54.19V164.93H58.71V167.07H54.19V169.54V169.53Z" fill="black"/>
<path d="M69.91 160.55H72.29V171.67H70.23L64.75 164.6V171.67H62.36V160.55H64.43L69.91 167.62V160.55Z" fill="black"/>
<path d="M74.03 160.55H82.76V162.7H79.59V171.67H77.21V162.7H74.03V160.55Z" fill="black"/>
<path d="M90.07 169.05H85.78L84.83 171.67H82.29L86.66 160.55H89.2L93.57 171.67H91.03L90.08 169.05H90.07ZM89.28 166.99L87.93 163.34L86.57 166.99H89.28Z" fill="black"/>
<path d="M15.14 179.38C15.72 179.38 16.28 179.46 16.81 179.61C17.34 179.76 17.77 179.95 18.11 180.16C18.45 180.38 18.75 180.59 19.01 180.81C19.27 181.03 19.46 181.21 19.57 181.36L19.75 181.59L18.24 183.1C18.24 183.1 18.17 183 18.11 182.93C18.06 182.85 17.93 182.73 17.75 182.55C17.56 182.37 17.36 182.21 17.13 182.07C16.91 181.93 16.62 181.81 16.25 181.69C15.89 181.57 15.52 181.52 15.14 181.52C14.1 181.52 13.23 181.87 12.53 182.57C11.83 183.27 11.48 184.14 11.48 185.18C11.48 186.22 11.83 187.09 12.53 187.79C13.23 188.49 14.1 188.84 15.14 188.84C15.54 188.84 15.93 188.78 16.3 188.67C16.67 188.56 16.98 188.43 17.22 188.27C17.46 188.12 17.68 187.96 17.86 187.81C18.04 187.66 18.18 187.52 18.26 187.41L18.38 187.25L19.82 188.76C19.78 188.82 19.72 188.9 19.63 189C19.55 189.1 19.36 189.28 19.06 189.54C18.77 189.8 18.46 190.02 18.12 190.21C17.78 190.4 17.35 190.58 16.81 190.74C16.27 190.9 15.71 190.98 15.13 190.98C13.43 190.98 12 190.41 10.84 189.28C9.68003 188.15 9.09003 186.78 9.09003 185.18C9.09003 183.58 9.67003 182.22 10.84 181.09C12.01 179.96 13.44 179.39 15.13 179.39L15.14 179.38Z" fill="black"/>
<path d="M28.24 188.109H23.95L23 190.729H20.46L24.83 179.609H27.37L31.74 190.729H29.2L28.25 188.109H28.24ZM27.44 186.049L26.09 182.399L24.73 186.049H27.44Z" fill="black"/>
<path d="M38.16 187.47C38.16 187.1 37.97 186.8 37.6 186.57C37.23 186.34 36.77 186.15 36.23 186C35.69 185.85 35.15 185.67 34.62 185.46C34.09 185.25 33.63 184.91 33.25 184.44C32.87 183.96 32.68 183.36 32.68 182.63C32.68 181.73 33.04 180.96 33.76 180.33C34.48 179.69 35.42 179.38 36.57 179.38C37.03 179.38 37.46 179.43 37.89 179.54C38.32 179.65 38.66 179.77 38.93 179.91C39.2 180.05 39.44 180.2 39.64 180.34C39.84 180.49 39.99 180.61 40.08 180.72L40.22 180.88L38.79 182.39C38.73 182.32 38.64 182.23 38.53 182.12C38.42 182.01 38.19 181.87 37.83 181.7C37.47 181.53 37.11 181.44 36.73 181.44C36.27 181.44 35.91 181.56 35.63 181.79C35.35 182.02 35.21 182.3 35.21 182.64C35.21 183.01 35.4 183.31 35.77 183.54C36.14 183.76 36.6 183.96 37.13 184.11C37.67 184.27 38.2 184.45 38.74 184.65C39.28 184.86 39.74 185.2 40.12 185.67C40.5 186.14 40.69 186.75 40.69 187.48C40.69 188.51 40.32 189.35 39.57 190C38.82 190.65 37.79 190.98 36.48 190.98C35.96 190.98 35.46 190.92 34.98 190.79C34.5 190.66 34.1 190.51 33.79 190.34C33.48 190.16 33.2 189.99 32.96 189.8C32.72 189.62 32.55 189.47 32.45 189.34L32.27 189.15L33.71 187.72C33.78 187.8 33.88 187.91 34.02 188.04C34.16 188.17 34.45 188.35 34.9 188.57C35.35 188.79 35.83 188.9 36.33 188.9C36.9 188.9 37.35 188.77 37.68 188.5C38 188.23 38.16 187.89 38.16 187.48V187.47Z" fill="black"/>
<path d="M45.23 188.589H51.19V190.729H42.84V179.609H51.02V181.759H45.23V183.989H49.75V186.129H45.23V188.599V188.589Z" fill="black"/>
<path d="M53.4 190.729V179.609H58.32C59.42 179.609 60.33 179.959 61.05 180.669C61.77 181.379 62.13 182.239 62.13 183.259C62.13 183.699 62.06 184.119 61.92 184.509C61.78 184.899 61.62 185.209 61.43 185.449C61.24 185.689 61.05 185.889 60.85 186.059C60.65 186.229 60.49 186.349 60.35 186.409L60.15 186.519L62.53 190.729H59.99L57.85 186.839H55.79V190.729H53.4ZM59.75 183.259C59.75 182.829 59.61 182.469 59.32 182.179C59.03 181.889 58.67 181.749 58.24 181.749H55.78V184.689H58.24C58.67 184.689 59.03 184.549 59.32 184.279C59.61 183.999 59.75 183.659 59.75 183.259Z" fill="black"/>
<path d="M71.19 188.109H66.9L65.95 190.729H63.41L67.78 179.609H70.32L74.69 190.729H72.15L71.2 188.109H71.19ZM70.4 186.049L69.05 182.399L67.69 186.049H70.4Z" fill="black"/>
</g>
<defs>
<clipPath id="clip0_7_83">
<rect width="456.93" height="192.39" fill="white"/>
</clipPath>
</defs>
</svg>
